<svg width="46" height="34" viewBox="0 0 46 34" fill="none" xmlns="http://www.w3.org/2000/svg">
<path d="M26.7623 27.9025C27.8006 24.8889 28.7829 22.0335 29.7677 19.1793C30.3358 17.5321 30.9059 15.8858 31.4778 14.2403C31.5699 13.974 31.6434 13.7258 32.0086 13.6917C32.6694 13.6338 32.7815 13.7509 32.5651 14.3798C30.4279 20.564 28.2886 26.7468 26.1472 32.9283C26.0892 33.0962 26.0647 33.2956 25.8045 33.4274C25.5095 32.6428 25.2145 31.8698 24.9272 31.0942C22.7057 25.0979 20.4681 19.1086 18.2762 13.1007C17.5445 11.0961 16.9029 9.03689 17.0105 6.87283C17.1941 3.17496 19.2945 0.960745 22.9138 0.790321C24.2297 0.72601 25.485 0.931162 26.5639 1.72154C28.2869 2.98332 28.7429 4.79109 28.5677 6.79759C28.3565 9.22018 27.5133 11.4923 26.7462 13.7727C26.0886 15.74 25.3994 17.6996 24.7211 19.6617C24.676 19.7903 24.6065 19.9157 24.4822 20.1858C24.2593 19.4282 23.9379 18.8925 24.2026 18.1613C25.4226 14.7991 26.5858 11.4164 27.5881 7.98091C27.979 6.63746 28.1581 5.29272 27.6215 3.94927C26.8338 1.97557 24.5904 0.82312 22.5299 1.32989C21.3273 1.62636 20.5718 2.43861 20.1467 3.55376C19.3377 5.68952 19.4671 7.85872 20.1228 9.99126C20.8442 12.3302 21.7917 14.5914 22.7134 16.8577C24.0564 20.1562 25.1726 23.5364 26.3849 26.8806C26.4937 27.1732 26.6039 27.469 26.7623 27.9025Z" fill="#007583"/>
<path d="M37.6688 13.9316C37.8929 14.0403 37.9264 14.2783 38.0063 14.4719C40.6007 20.5977 43.1924 26.7248 45.7813 32.8532C45.8393 32.9895 45.8895 33.1291 45.9488 33.2648C46.0615 33.522 45.9919 33.6506 45.7008 33.6506C44.8467 33.6506 43.9926 33.6423 43.1392 33.6506C42.7411 33.6551 42.6625 33.3567 42.553 33.0853C41.4671 30.4057 40.383 27.7261 39.3009 25.0465C38.5787 23.2608 37.8566 21.4747 37.1348 19.6881C37.0871 19.5711 37.0266 19.4592 36.9184 19.2321C36.6376 20.0167 36.387 20.6997 36.1455 21.3865C34.7967 25.2705 33.4479 29.1564 32.0992 33.0442C32.0393 33.2172 31.9935 33.43 31.8679 33.5387C31.6425 33.7394 31.3211 33.7143 31.0808 33.5908C30.8406 33.4673 31.0164 33.2185 31.0808 33.0435C33.1901 26.8131 35.3045 20.5846 37.424 14.358C37.4762 14.2088 37.4813 14.0217 37.6688 13.9316Z" fill="#007583"/>
<path d="M5.09023 27.905C5.04411 27.8482 5.00111 27.789 4.96141 27.7275C4.54983 27.0085 3.99911 26.4522 3.10702 26.5506C2.1151 26.66 1.44458 27.2671 1.10449 28.1874C0.288403 30.3951 1.28484 32.3676 3.50186 32.9914C5.71888 33.6152 7.70725 32.3701 8.17874 30.0974C8.45892 28.7469 8.16843 27.5552 7.3195 26.496C6.30309 25.2265 5.24289 23.9853 4.22455 22.7106C3.43552 21.7222 2.765 20.6527 2.28256 19.479C1.35183 17.2114 2.21815 14.7786 4.30893 13.7997C6.66637 12.6955 9.1829 14.1303 9.4296 16.7143C9.46373 17.0764 9.36519 17.2963 8.9594 17.2815C8.79257 17.2751 8.6251 17.277 8.45764 17.2815C8.09371 17.2937 7.97777 17.1529 8.1504 16.8127C8.77647 15.5696 7.37747 13.8544 6.03965 13.929C5.09023 13.9817 4.27801 14.7361 4.20974 15.6885C4.14146 16.641 4.49379 17.47 4.91826 18.2796C5.81486 19.9794 7.02256 21.463 8.1942 22.9743C8.93363 23.9268 9.6866 24.8702 10.2322 25.9545C11.9281 29.325 9.61188 33.3824 5.84449 33.6461C5.23575 33.6973 4.62397 33.7016 4.01457 33.6589C2.28385 33.5136 0.589202 32.0068 0.116426 30.152C-0.308042 28.4735 0.452651 26.6433 1.99851 25.6953C2.88352 25.1512 3.81168 25.1011 4.76818 25.5152C5.07156 25.6439 5.24546 25.8323 5.23451 26.1873C5.21712 26.7539 5.23001 27.3217 5.23001 27.8896L5.09023 27.905Z" fill="#007583"/>
<path d="M20.2062 28.1326C20.7576 26.6239 21.2548 25.2637 21.7965 23.7801C22.1952 24.4714 22.4406 24.9795 22.1959 25.6747C21.3392 28.0831 20.5418 30.5134 19.716 32.9334C19.66 33.0974 19.6735 33.3714 19.4642 33.3797C19.2549 33.3881 19.2446 33.1141 19.1763 32.9553C16.8158 27.4541 14.4586 21.9526 12.1046 16.4506C11.8051 15.7521 11.5152 15.0499 11.2119 14.354C11.0566 13.9984 11.1539 13.8299 11.5462 13.8273C12.3629 13.8215 13.1796 13.817 13.9938 13.7971C14.3641 13.7881 14.4447 14.0543 14.5522 14.3116C15.6751 17.0555 16.7972 19.7994 17.9183 22.5434C18.6629 24.3634 19.4062 26.1782 20.2062 28.1326Z" fill="#007583"/>
</svg>
