<svg width="21" height="20" viewBox="0 0 21 20" fill="none" xmlns="http://www.w3.org/2000/svg">
<path d="M16.3327 1.6666H15.4994V0.833299C15.4994 0.373318 15.1261 0 14.6661 0C14.2061 0 13.8328 0.373318 13.8328 0.833299V1.6666H7.16639V0.833299C7.16639 0.373318 6.79307 0 6.33309 0C5.87311 0 5.49979 0.373318 5.49979 0.833299V1.6666H4.66649C2.36909 1.6666 0.5 3.53569 0.5 5.83309V15.8327C0.5 18.1301 2.36909 19.9992 4.66649 19.9992H7.99969C8.45967 19.9992 8.83299 19.6258 8.83299 19.1659C8.83299 18.7059 8.45967 18.3326 7.99969 18.3326H4.66649C3.28822 18.3326 2.1666 17.2109 2.1666 15.8327V8.33299H19.6659C20.1258 8.33299 20.4992 7.95967 20.4992 7.49969V5.83309C20.4992 3.53569 18.6301 1.6666 16.3327 1.6666ZM18.8326 6.66639H2.1666V5.83309C2.1666 4.45481 3.28822 3.33319 4.66649 3.33319H16.3327C17.7109 3.33319 18.8326 4.45481 18.8326 5.83309V6.66639ZM16.2318 10.7321L11.4762 15.4877C10.8471 16.1168 10.4996 16.9543 10.4996 17.8451V19.1667C10.4996 19.6267 10.8729 20 11.3329 20H12.6545C13.5453 20 14.3819 19.6525 15.0111 19.0234L19.7667 14.2677C20.2392 13.7953 20.4992 13.1678 20.4992 12.4995C20.4992 11.8312 20.2392 11.2037 19.7675 10.7321C18.8226 9.78709 17.176 9.78709 16.2318 10.7321ZM18.5884 13.0886L13.8319 17.8443C13.5178 18.1592 13.0995 18.3326 12.6537 18.3326H12.1653V17.8443C12.1653 17.3993 12.3387 16.981 12.6537 16.666L17.4101 11.9103C17.7243 11.5954 18.2734 11.5954 18.5884 11.9103C18.7459 12.067 18.8326 12.2762 18.8326 12.4995C18.8326 12.7228 18.7459 12.9311 18.5884 13.0886ZM4.66649 11.6662C4.66649 11.2062 5.03981 10.8329 5.49979 10.8329H11.3329C11.7929 10.8329 12.1662 11.2062 12.1662 11.6662C12.1662 12.1262 11.7929 12.4995 11.3329 12.4995H5.49979C5.03981 12.4995 4.66649 12.1262 4.66649 11.6662ZM9.66628 14.9994C9.66628 15.4594 9.29297 15.8327 8.83299 15.8327H5.49979C5.03981 15.8327 4.66649 15.4594 4.66649 14.9994C4.66649 14.5394 5.03981 14.1661 5.49979 14.1661H8.83299C9.29297 14.1661 9.66628 14.5394 9.66628 14.9994Z" fill="#10B981"/>
</svg>
