<svg width="45" height="38" viewBox="0 0 45 38" fill="none" xmlns="http://www.w3.org/2000/svg">
<path d="M38.5714 0H6.42857C4.72418 0.00183355 3.09013 0.669683 1.88494 1.85702C0.679753 3.04435 0.00186113 4.65419 0 6.33333V31.6667C0.00186113 33.3458 0.679753 34.9557 1.88494 36.143C3.09013 37.3303 4.72418 37.9982 6.42857 38H38.5714C40.2758 37.9982 41.9099 37.3303 43.1151 36.143C44.3202 34.9557 44.9981 33.3458 45 31.6667V6.33333C44.9981 4.65419 44.3202 3.04435 43.1151 1.85702C41.9099 0.669683 40.2758 0.00183355 38.5714 0ZM30.5357 6.33333C31.4893 6.33333 32.4215 6.61192 33.2144 7.13385C34.0072 7.65579 34.6252 8.39764 34.9901 9.26559C35.3551 10.1335 35.4505 11.0886 35.2645 12.01C35.0785 12.9314 34.6193 13.7778 33.945 14.4421C33.2707 15.1064 32.4116 15.5588 31.4763 15.7421C30.5411 15.9253 29.5716 15.8313 28.6906 15.4718C27.8096 15.1122 27.0566 14.5034 26.5268 13.7223C25.9971 12.9412 25.7143 12.0228 25.7143 11.0833C25.7156 9.82396 26.224 8.61654 27.1279 7.72602C28.0318 6.83551 29.2574 6.33464 30.5357 6.33333ZM6.42857 34.8333C5.57609 34.8333 4.75852 34.4997 4.15573 33.9058C3.55293 33.312 3.21429 32.5065 3.21429 31.6667V24.9741L12.7406 16.6319C13.6598 15.8288 14.8551 15.4012 16.0831 15.4361C17.3111 15.4711 18.4794 15.9659 19.35 16.8199L25.874 23.2334L14.0997 34.8333H6.42857ZM41.7857 31.6667C41.7857 32.5065 41.4471 33.312 40.8443 33.9058C40.2415 34.4997 39.4239 34.8333 38.5714 34.8333H18.6459L30.8421 22.8178C31.7056 22.0944 32.8014 21.6958 33.9349 21.6929C35.0684 21.69 36.1663 22.083 37.0336 22.802L41.7857 26.7029V31.6667Z" fill="#94A3B8"/>
</svg>
